# xmcd
#
# Track frame offsets:
#	150
#	10864
#	31137
#	45893
#	59197
#	72821
#	82078
#	96746
#	110673
#	126156
#	137243
#	147132
#	160660
#	175216
#	185658
#	196020
#	212294
#	224466
#	237435
#	251309
#	262533
#	273631
#	290047
#	303596
#	313011
#	326550
#	341847
#
# Disc length: 4682 seconds
#
# Revision: 1
# Processed by: cddbd v1.5PL3 Copyright (c) Steve Scherf et al.
# Submitted via: audiograbber 1.82.01
#
DISCID=9912481b
DTITLE=Edith Piaf - Francaise chancone
DYEAR=1900
DGENRE=
TTITLE0=Non, je ne regrette rien
TTITLE1=Milord
TTITLE2=Padam... padam
TTITLE3=La foule
TTITLE4=La vie en rose
TTITLE5=Le goualante du pauvre Jean
TTITLE6=Du matin jusqu'au soir
TTITLE7=Bravo pour le clown
TTITLE8=Hymne a l'amour
TTITLE9=Le ballet des coeurs
TTITLE10=Johnny, tu n'es pas un ange
TTITLE11=Monseniur et madame
TTITLE12=Les amants d'un jour
TTITLE13=La valse de l'amour
TTITLE14=Fais comme si
TTITLE15=L'accordeoniste
TTITLE16=Paris
TTITLE17='cause I love you
TTITLE18=Adieu mon coeur
TTITLE19=Les flons flons du bal
TTITLE20=A quoi ca sert l'amour
TTITLE21=Serenade du pave
TTITLE22=Mon menage a moi
TTITLE23=L'homme a la moto
TTITLE24=C'est a Hambourg
TTITLE25=Sous le ciel de Paris
TTITLE26=Tant qu'il y aura des jours
EXTD=
EXTT0=
EXTT1=
EXTT2=
EXTT3=
EXTT4=
EXTT5=
EXTT6=
EXTT7=
EXTT8=
EXTT9=
EXTT10=
EXTT11=
EXTT12=
EXTT13=
EXTT14=
EXTT15=
EXTT16=
EXTT17=
EXTT18=
EXTT19=
EXTT20=
EXTT21=
EXTT22=
EXTT23=
EXTT24=
EXTT25=
EXTT26=
PLAYORDER=
